<?xml version="1.0" encoding="utf-8"?>
<!-- Generator: Adobe Illustrator 17.1.0, SVG Export Plug-In . SVG Version: 6.00 Build 0)  -->
<!DOCTYPE svg PUBLIC "-//W3C//DTD SVG 1.1//EN" "http://www.w3.org/Graphics/SVG/1.1/DTD/svg11.dtd">
<svg version="1.1" id="Layer_1" xmlns="http://www.w3.org/2000/svg" xmlns:xlink="http://www.w3.org/1999/xlink" x="0px" y="0px"
	 viewBox="0 0 16383 16383" enable-background="new 0 0 16383 16383" xml:space="preserve">
<line fill="none" stroke="#5011EA" stroke-miterlimit="10" x1="0" y1="9558" x2="5808" y2="8491.3"/>
<line fill="none" stroke="#5011EA" stroke-miterlimit="10" x1="5808" y1="8491.3" x2="16383" y2="8824.7"/>
<line fill="none" stroke="#5011EA" stroke-miterlimit="10" x1="0" y1="5224.7" x2="16383" y2="5058"/>
<line fill="none" stroke="#5011EA" stroke-miterlimit="10" x1="16383" y1="5558" x2="10108" y2="5724.7"/>
<line fill="none" stroke="#5011EA" stroke-miterlimit="10" x1="10108" y1="5724.7" x2="9241.3" y2="6658"/>
<line fill="none" stroke="#5011EA" stroke-miterlimit="10" x1="9241.3" y1="6658" x2="9441.3" y2="7624.7"/>
<line fill="none" stroke="#5011EA" stroke-miterlimit="10" x1="9441.3" y1="7624.7" x2="10474.7" y2="8191.5"/>
<line fill="none" stroke="#5011EA" stroke-miterlimit="10" x1="10474.7" y1="8191.5" x2="16383" y2="8191.5"/>
<line fill="none" stroke="#5011EA" stroke-miterlimit="10" x1="4841.3" y1="5724.7" x2="6474.7" y2="5724.7"/>
<line fill="none" stroke="#5011EA" stroke-miterlimit="10" x1="6474.7" y1="5724.7" x2="7341.3" y2="6391.3"/>
<line fill="none" stroke="#5011EA" stroke-miterlimit="10" x1="7341.3" y1="6391.3" x2="7341.3" y2="7224.7"/>
<line fill="none" stroke="#5011EA" stroke-miterlimit="10" x1="7341.3" y1="7224.7" x2="6474.7" y2="8058"/>
<line fill="none" stroke="#5011EA" stroke-miterlimit="10" x1="6474.7" y1="8058" x2="4841.3" y2="8058"/>
<line fill="none" stroke="#5011EA" stroke-miterlimit="10" x1="4841.3" y1="8058" x2="4174.7" y2="7624.7"/>
<line fill="none" stroke="#5011EA" stroke-miterlimit="10" x1="4174.7" y1="7624.7" x2="4008" y2="6191.3"/>
<line fill="none" stroke="#5011EA" stroke-miterlimit="10" x1="4008" y1="6191.3" x2="4841.3" y2="5724.7"/>
<line fill="none" stroke="#000000" stroke-width="60" stroke-miterlimit="10" x1="3574.9" y1="2824.1" x2="5396" y2="9558"/>
<line fill="none" stroke="#000000" stroke-width="60" stroke-miterlimit="10" x1="10635.6" y1="7641.3" x2="8910.3" y2="2824.1"/>
<line fill="none" stroke="#000000" stroke-width="60" stroke-miterlimit="10" x1="10635.6" y1="7641.3" x2="15651.6" y2="7624.7"/>
<line fill="none" stroke="#000000" stroke-width="60" stroke-miterlimit="10" x1="15651.6" y1="7624.7" x2="15651.6" y2="6191"/>
<line fill="none" stroke="#000000" stroke-width="60" stroke-miterlimit="10" x1="15651.6" y1="6191" x2="10108" y2="6191.3"/>
<line fill="none" stroke="#000000" stroke-width="60" stroke-miterlimit="10" x1="4449.5" y1="6058" x2="4855.3" y2="5844.3"/>
<line fill="none" stroke="#000000" stroke-width="60" stroke-miterlimit="10" x1="4841.3" y1="5846.3" x2="6386.6" y2="5846.3"/>
<line fill="none" stroke="#000000" stroke-width="60" stroke-miterlimit="10" x1="6370.2" y1="5840.2" x2="7142" y2="6412.5"/>
<line fill="none" stroke="#000000" stroke-width="60" stroke-miterlimit="10" x1="7130.9" y1="6391.3" x2="7130.9" y2="7141.3"/>
<line fill="none" stroke="#000000" stroke-width="60" stroke-miterlimit="10" x1="7139.1" y1="7119.6" x2="6364.2" y2="7916.6"/>
<line fill="none" stroke="#000000" stroke-width="60" stroke-miterlimit="10" x1="6386.6" y1="7908.1" x2="4949.8" y2="7908.1"/>
<line fill="none" stroke="#000000" stroke-width="40" stroke-miterlimit="10" x1="6386.6" y1="7908.1" x2="5304" y2="5846.3"/>
<line fill="none" stroke="#000000" stroke-width="40" stroke-miterlimit="10" x1="5960" y1="7908.1" x2="4841.3" y2="5846.3"/>
<line fill="none" stroke="#000000" stroke-width="40" stroke-miterlimit="10" x1="5432" y1="7908.1" x2="4690.1" y2="6947.8"/>
<g>
	<line fill="none" stroke="#EFB116" stroke-width="4" stroke-miterlimit="10" x1="5003" y1="7855" x2="4949.8" y2="7673"/>
	<line fill="none" stroke="#407BFF" stroke-width="4" stroke-miterlimit="10" x1="5262" y1="7767" x2="5003" y2="7855"/>
	<line fill="none" stroke="#407BFF" stroke-width="4" stroke-miterlimit="10" x1="5125" y1="7601" x2="5262" y2="7767"/>
	<line fill="none" stroke="#407BFF" stroke-width="4" stroke-miterlimit="10" x1="4949.8" y1="7673" x2="5125" y2="7601"/>
</g>
<g>
	<line fill="none" stroke="#3FFF75" stroke-width="5" stroke-miterlimit="10" x1="4878.4" y1="7453.7" x2="4983.4" y2="7444.4"/>
	<line fill="none" stroke="#3FFF75" stroke-width="5" stroke-miterlimit="10" x1="4983.4" y1="7444.4" x2="5098" y2="7574"/>
	<line fill="none" stroke="#3FFF75" stroke-width="5" stroke-miterlimit="10" x1="5098" y1="7574" x2="4944" y2="7642"/>
	<line fill="none" stroke="#FF0025" stroke-width="5" stroke-miterlimit="10" x1="4944" y1="7642" x2="4878.4" y2="7453.7"/>
	
		<text transform="matrix(-0.9961 8.834000e-002 -8.834000e-002 -0.9961 4956.4243 7480.5449)" font-family="'MyriadPro-Regular'" font-size="12">50</text>
</g>
<g>
	<line fill="none" stroke="#47310E" stroke-miterlimit="10" x1="5463.6" y1="7841.4" x2="5356" y2="7707.3"/>
	<line fill="none" stroke="#FF43FB" stroke-miterlimit="10" x1="5356" y1="7707.3" x2="5601" y2="7518.1"/>
	<line fill="none" stroke="#FF43FB" stroke-miterlimit="10" x1="5601" y1="7518.1" x2="5796" y2="7811"/>
	<line fill="none" stroke="#FF43FB" stroke-miterlimit="10" x1="5796" y1="7811" x2="5463.6" y2="7841.4"/>
</g>
<g>
	<line fill="none" stroke="#45FFE0" stroke-miterlimit="10" x1="5334.6" y1="7633.6" x2="5568" y2="7480.6"/>
	<line fill="none" stroke="#45FFE0" stroke-miterlimit="10" x1="5568" y1="7480.6" x2="5386" y2="7086.2"/>
	<line fill="none" stroke="#45FFE0" stroke-miterlimit="10" x1="5386" y1="7086.2" x2="5214.6" y2="7445.3"/>
	<line fill="none" stroke="#AD18AD" stroke-miterlimit="10" x1="5214.6" y1="7445.3" x2="5334.6" y2="7633.6"/>
</g>
<g>
	<line fill="none" stroke="#F78484" stroke-miterlimit="10" x1="5040.7" y1="7235.5" x2="5274.6" y2="6879.4"/>
	<line fill="none" stroke="#F78484" stroke-miterlimit="10" x1="5274.6" y1="6879.4" x2="5061" y2="6572"/>
	<line fill="none" stroke="#F78484" stroke-miterlimit="10" x1="5061" y1="6572" x2="4716" y2="6640"/>
	<line fill="none" stroke="#0B4226" stroke-miterlimit="10" x1="4716" y1="6640" x2="4772" y2="6947.8"/>
	<line fill="none" stroke="#F78484" stroke-miterlimit="10" x1="4772" y1="6947.8" x2="5040.7" y2="7235.5"/>
</g>
<g>
	<line fill="none" stroke="#330133" stroke-miterlimit="10" x1="4716" y1="6572" x2="5040.7" y2="6484"/>
	<line fill="none" stroke="#330133" stroke-miterlimit="10" x1="5040.7" y1="6484" x2="4983.4" y2="6276"/>
	<line fill="none" stroke="#330133" stroke-miterlimit="10" x1="4983.4" y1="6276" x2="4690.1" y2="6380"/>
	<line fill="none" stroke="#9E9B9E" stroke-miterlimit="10" x1="4690.1" y1="6380" x2="4716" y2="6572"/>
</g>
<g>
	<line fill="none" stroke="#032533" stroke-miterlimit="10" x1="4636" y1="6328" x2="4949.8" y2="6220"/>
	<line fill="none" stroke="#032533" stroke-miterlimit="10" x1="4949.8" y1="6220" x2="4836.7" y2="5976"/>
	<line fill="none" stroke="#032533" stroke-miterlimit="10" x1="4836.7" y1="5976" x2="4560" y2="6126.3"/>
	<line fill="none" stroke="#B70641" stroke-miterlimit="10" x1="4560" y1="6126.3" x2="4636" y2="6328"/>
</g>
<g>
	<line fill="none" stroke="#281E22" stroke-miterlimit="10" x1="4983.4" y1="5951.2" x2="5098" y2="6160"/>
	<line fill="none" stroke="#C12FE0" stroke-miterlimit="10" x1="5098" y1="6160" x2="5336" y2="6098"/>
	<line fill="none" stroke="#C12FE0" stroke-miterlimit="10" x1="5336" y1="6098" x2="5280" y2="5920"/>
	<line fill="none" stroke="#C12FE0" stroke-miterlimit="10" x1="5280" y1="5920" x2="4983.4" y2="5951.2"/>
</g>
<line fill="none" stroke="#EFB116" stroke-width="4" stroke-miterlimit="10" x1="6108" y1="7086.2" x2="5900" y2="6585"/>
<line fill="none" stroke="#407BFF" stroke-width="4" stroke-miterlimit="10" x1="6504" y1="6484" x2="6108" y2="7086.2"/>
<line fill="none" stroke="#407BFF" stroke-width="4" stroke-miterlimit="10" x1="5900" y1="6585" x2="6504" y2="6484"/>
<path fill="none" stroke="#407BFF" stroke-width="4" stroke-miterlimit="10" d="M5900,6585"/>
<g>
	<line fill="none" stroke="#330133" stroke-miterlimit="10" x1="6408" y1="7707.3" x2="6548" y2="6534.5"/>
	<line fill="none" stroke="#330133" stroke-miterlimit="10" x1="6548" y1="6534.5" x2="6156" y2="7173.2"/>
	<line fill="none" stroke="#9E9B9E" stroke-miterlimit="10" x1="6156" y1="7173.2" x2="6408" y2="7707.3"/>
</g>
<g>
	<line fill="none" stroke="#3FFF75" stroke-width="5" stroke-miterlimit="10" x1="5432" y1="6335.5" x2="5236.5" y2="6412.5"/>
	<line fill="none" stroke="#3FFF75" stroke-width="5" stroke-miterlimit="10" x1="5236.5" y1="6412.5" x2="5133" y2="6193.4"/>
	<line fill="none" stroke="#3FFF75" stroke-width="5" stroke-miterlimit="10" x1="5133" y1="6193.4" x2="5340" y2="6129"/>
	<line fill="none" stroke="#FF0025" stroke-width="5" stroke-miterlimit="10" x1="5340" y1="6129" x2="5432" y2="6335.5"/>
	<text transform="matrix(0.9809 -0.1945 0.1945 0.9809 5297.2163 6335.4663)" font-family="'MyriadPro-Regular'" font-size="12">50</text>
</g>
<g>
	<line fill="none" stroke="#47310E" stroke-miterlimit="10" x1="5501.2" y1="6920.4" x2="5409.7" y2="6715.4"/>
	<line fill="none" stroke="#FF43FB" stroke-miterlimit="10" x1="5409.7" y1="6715.4" x2="5589.1" y2="6612.3"/>
	<line fill="none" stroke="#FF43FB" stroke-miterlimit="10" x1="5589.1" y1="6612.3" x2="5764.9" y2="6879.4"/>
	<line fill="none" stroke="#FF43FB" stroke-miterlimit="10" x1="5764.9" y1="6879.4" x2="5501.2" y2="6920.4"/>
</g>
<g>
	<line fill="none" stroke="#032533" stroke-miterlimit="10" x1="5660" y1="7235.5" x2="5925.8" y2="7189.2"/>
	<line fill="none" stroke="#032533" stroke-miterlimit="10" x1="5925.8" y1="7189.2" x2="5812.8" y2="6945.2"/>
	<line fill="none" stroke="#032533" stroke-miterlimit="10" x1="5812.8" y1="6945.2" x2="5549.7" y2="6990.2"/>
	<line fill="none" stroke="#B70641" stroke-miterlimit="10" x1="5549.7" y1="6990.2" x2="5660" y2="7235.5"/>
</g>
<g>
	<line fill="none" stroke="#281E22" stroke-miterlimit="10" x1="5868.5" y1="7618.5" x2="5983.1" y2="7827.3"/>
	<line fill="none" stroke="#C12FE0" stroke-miterlimit="10" x1="5983.1" y1="7827.3" x2="6221.1" y2="7765.3"/>
	<line fill="none" stroke="#C12FE0" stroke-miterlimit="10" x1="6221.1" y1="7765.3" x2="6165.1" y2="7587.3"/>
	<line fill="none" stroke="#C12FE0" stroke-miterlimit="10" x1="6165.1" y1="7587.3" x2="5868.5" y2="7618.5"/>
</g>
<line fill="none" stroke="#000000" stroke-width="40" stroke-miterlimit="10" x1="6016.8" y1="7224.7" x2="5668.2" y2="7370.2"/>
<line fill="none" stroke="#000000" stroke-width="60" stroke-miterlimit="10" x1="5262" y1="6640" x2="5589.1" y2="6412.5"/>
<g>
	<line fill="none" stroke="#03F709" stroke-miterlimit="10" x1="6016.8" y1="7334.3" x2="5807.1" y2="7380.3"/>
	<line fill="none" stroke="#03F709" stroke-miterlimit="10" x1="5807.1" y1="7380.3" x2="5869.3" y2="7581.4"/>
	<line fill="none" stroke="#03F709" stroke-miterlimit="10" x1="5869.3" y1="7581.4" x2="6090.5" y2="7560.6"/>
	<line fill="none" stroke="#771717" stroke-miterlimit="10" x1="6090.5" y1="7560.6" x2="6016.8" y2="7334.3"/>
</g>
<line fill="none" stroke="#000000" stroke-width="40" stroke-miterlimit="10" x1="5098" y1="7453.7" x2="5386" y2="6879.4"/>
<line fill="none" stroke="#000000" stroke-width="20" stroke-miterlimit="10" x1="5601" y1="6391.3" x2="6898.9" y2="6232.2"/>
<line fill="none" stroke="#000000" stroke-width="20" stroke-miterlimit="10" x1="6632" y1="7612.7" x2="6898.9" y2="6232.2"/>
</svg>
